HIERARCHY
ROOT Hips
{
	OFFSET 0.000000 0.000000 0.000000 
	CHANNELS 6 Xposition Yposition Zposition Yrotation Zrotation Xrotation 
	JOINT Lumbar
	{
		OFFSET 0.000000 0.000000 0.000000 
		CHANNELS 3 Zrotation Xrotation Yrotation
		JOINT Neck
		{
			OFFSET 0.000000 0.445665 0.000000 
			CHANNELS 3 Zrotation Xrotation Yrotation
			End Site
			{
				OFFSET 0.000000 0.227535 0.000000 
			}
		}
		JOINT RightShoulder
		{
			OFFSET 0.019635 0.377685 0.194865 
			CHANNELS 3 Zrotation Xrotation Yrotation
			JOINT RightElbow
			{
				OFFSET 0.000000 -0.243375 0.000000 
				CHANNELS 2 Zrotation Yrotation
				JOINT RightWrist
				{
					OFFSET 0.000000 -0.264825 0.000000 
					CHANNELS 2 Zrotation Xrotation
					End Site
					{
						OFFSET 0.006600 -0.176220 0.000990 
					}
				}
			}
		}
		JOINT LeftShoulder
		{
			OFFSET 0.019635 0.377685 -0.194865 
			CHANNELS 3 Zrotation Xrotation Yrotation
			JOINT LeftElbow
			{
				OFFSET 0.000000 -0.243375 0.000000 
				CHANNELS 2 Zrotation Yrotation
				JOINT LeftWrist
				{
					OFFSET 0.000000 -0.264825 0.000000 
					CHANNELS 2 Zrotation Xrotation
					End Site
					{
						OFFSET 0.006600 -0.176220 -0.000990 
					}
				}
			}
		}
	}
	JOINT RightHip
	{
		OFFSET 0.052140 -0.069960 0.075570 
		CHANNELS 3 Zrotation Xrotation Yrotation
		JOINT RightKnee
		{
			OFFSET 0.000000 -0.402270 0.000000 
			CHANNELS 1 Zrotation
			JOINT RightAnkle
			{
				OFFSET 0.000000 -0.404085 0.000000 
				CHANNELS 3 Zrotation Xrotation Yrotation
				End Site
				{
					OFFSET 0.204105 -0.089430 0.008415 
				}
			}
		}
	}
	JOINT LeftHip
	{
		OFFSET 0.052140 -0.069960 -0.075570 
		CHANNELS 3 Zrotation Xrotation Yrotation
		JOINT LeftKnee
		{
			OFFSET 0.000000 -0.402270 0.000000 
			CHANNELS 1 Zrotation
			JOINT LeftAnkle
			{
				OFFSET 0.000000 -0.404085 0.000000 
				CHANNELS 3 Zrotation Xrotation Yrotation
				End Site
				{
					OFFSET 0.204105 -0.089430 -0.008415 
				}
			}
		}
	}
}
MOTION
Frames: 25
Frame Time: 0.02
-0.00025 -9e-05 -0.00016 20.19922 -36.5351 -2.69795 56.684 -0.11659 0.54112 -6.15376 -1.17734 -0.14203 159.20285 -76.92425 -56.16082 15.55815 77.00566 -2.71275 -9.54826 160.1475 71.45583 74.46772 9.97349 -91.06363 -4.25582 10.99564 49.60262 -0.17954 -4.84812 -18.88311 -8.74488 -5.63835 -3.76768 55.48464 0.61226 -1.80767 -24.22831 -9.71368 5.7768 3.90974
-0.00042 -0.00011 -0.00021 20.18966 -36.52984 -2.70207 56.72484 -0.12849 0.53827 -6.31136 -1.18092 -0.14245 159.54855 -76.86299 -55.81295 15.54796 77.03113 -2.68824 -9.5545 160.41005 71.48563 74.09189 10.00295 -91.07113 -4.24067 11.02065 49.60717 -0.2033 -4.97795 -18.88478 -8.72948 -5.6308 -3.76268 55.48727 0.71085 -1.3324 -24.22894 -9.6539 5.74394 3.888
-0.00059 -0.00013 -0.00026 20.18013 -36.52456 -2.70619 56.76561 -0.14037 0.53544 -6.46872 -1.18449 -0.14286 159.89352 -76.80187 -55.46574 15.5378 77.05658 -2.66371 -9.56068 160.67193 71.51537 73.71714 10.0323 -91.07862 -4.22548 11.04552 49.61168 -0.22705 -5.10776 -18.88645 -8.7141 -5.62327 -3.75769 55.48985 0.80927 -0.85804 -24.22958 -9.59424 5.71114 3.8663
-0.00076 -0.00015 -0.0003 20.1706 -36.51931 -2.7103 56.80634 -0.15224 0.5326 -6.62588 -1.18806 -0.14328 160.23822 -76.74078 -55.11886 15.52765 77.08198 -2.63926 -9.56689 160.93371 71.54507 73.34245 10.06166 -91.0861 -4.21036 11.07043 49.61621 -0.25075 -5.23725 -18.88811 -8.69874 -5.61575 -3.7527 55.49246 0.90758 -0.38411 -24.23021 -9.53463 5.67837 3.84462
-0.00093 -0.00017 -0.00035 20.16105 -36.51409 -2.71441 56.84712 -0.16411 0.52975 -6.78319 -1.19165 -0.1437 160.58348 -76.67957 -54.77151 15.51749 77.10739 -2.61487 -9.57319 161.19609 71.57483 72.96671 10.09115 -91.09359 -4.19531 11.09551 49.6208 -0.27443 -5.36662 -18.88978 -8.68337 -5.60822 -3.74772 55.49513 1.00602 0.0904 -24.23084 -9.47494 5.64556 3.82291
-0.0011 -0.00019 -0.0004 20.15156 -36.50868 -2.71853 56.88788 -0.17599 0.52697 -6.94065 -1.19518 -0.14411 160.9278 -76.61867 -54.42466 15.50734 77.1329 -2.59004 -9.57911 161.45687 71.60453 72.5941 10.12021 -91.10107 -4.17982 11.11994 49.62512 -0.29831 -5.49733 -18.89145 -8.66798 -5.60067 -3.74271 55.49753 1.10436 0.56437 -24.23147 -9.41536 5.61279 3.80122
-0.00127 -0.00021 -0.00044 20.14196 -36.50367 -2.72263 56.92864 -0.18785 0.52404 -7.09761 -1.19881 -0.14453 161.27371 -76.55718 -54.07709 15.49715 77.15818 -2.56611 -9.58578 161.72064 71.63429 72.2156 10.15008 -91.10855 -4.16522 11.14563 49.62998 -0.32177 -5.6252 -18.89311 -8.65264 -5.59317 -3.73776 55.50047 1.20283 1.03915 -24.23209 -9.35558 5.57996 3.7795
-0.00144 -0.00023 -0.00049 20.13246 -36.49828 -2.72675 56.96939 -0.19974 0.52125 -7.25508 -1.20235 -0.14494 161.61801 -76.49628 -53.73034 15.48702 77.18366 -2.54139 -9.59178 161.98157 71.66403 71.84253 10.17923 -91.11606 -4.14984 11.17019 49.63433 -0.34563 -5.75572 -18.89478 -8.63724 -5.58562 -3.73275 55.50291 1.30109 1.51274 -24.23273 -9.29604 5.54721 3.75783
-0.00161 -0.00025 -0.00053 20.12307 -36.49245 -2.73088 57.01017 -0.21164 0.51864 -7.4131 -1.20578 -0.14535 161.96113 -76.43589 -53.38375 15.47689 77.20945 -2.51551 -9.59685 162.23948 71.69361 71.47592 10.20741 -91.12349 -4.13332 11.19325 49.63812 -0.36996 -5.88946 -18.89647 -8.62182 -5.57805 -3.72768 55.50476 1.39953 1.98694 -24.23338 -9.23656 5.51443 3.73611
-0.00178 -0.00027 -0.00058 20.11303 -36.48922 -2.73493 57.0509 -0.2234 0.515 -7.56772 -1.20986 -0.14578 162.31342 -76.37194 -53.03372 15.46655 77.23367 -2.4957 -9.60696 162.51615 71.72373 71.07158 10.2409 -91.13105 -4.12278 11.2246 49.64531 -0.39152 -6.00463 -18.89808 -8.6067 -5.57072 -3.72301 55.51003 1.49827 2.46384 -24.23394 -9.17605 5.48144 3.71437
-0.00194 -0.00029 -0.00063 20.10437 -36.48045 -2.73914 57.09167 -0.23549 0.51353 -7.72963 -1.21257 -0.14616 162.6448 -76.31589 -52.69261 15.45679 77.26107 -2.46352 -9.60661 162.75231 71.75295 70.74724 10.26335 -91.13853 -4.10001 11.23866 49.64524 -0.41894 -6.15894 -18.89983 -8.5908 -5.56278 -3.71744 55.50807 1.59549 2.93101 -24.2347 -9.11817 5.44916 3.69288
-0.00207 -0.00031 -0.00067 20.09944 -36.45694 -2.74404 57.13302 -0.24835 0.51813 -7.91084 -1.21142 -0.1464 162.93093 -76.27881 -52.3623 15.44742 77.29861 -2.39343 -9.57578 162.88386 71.77788 70.64117 10.25401 -91.14543 -4.04044 11.20309 49.62578 -0.46244 -6.42192 -18.90204 -8.57403 -5.55394 -3.70992 55.48614 1.69603 3.40568 -24.23606 -9.06348 5.41641 3.6703
-0.00219 -0.00033 -0.00071 20.0959 -36.42777 -2.74907 57.17429 -0.26157 0.52488 -8.09945 -1.20891 -0.14657 163.19368 -76.25029 -52.04355 15.43885 77.33935 -2.31168 -9.53472 162.9735 71.80238 70.61555 10.23388 -91.1531 -3.96935 11.15049 49.59897 -0.51177 -6.72371 -18.90438 -8.55629 -5.54435 -3.70143 55.45696 1.7938 3.8649 -24.23763 -9.01207 5.38477 3.64826
-0.00231 -0.00036 -0.00075 20.09176 -36.40088 -2.75388 57.21532 -0.27474 0.53055 -8.28517 -1.20709 -0.14677 163.45939 -76.21947 -51.72831 15.43068 77.37737 -2.23786 -9.49955 163.07806 71.8281 70.55404 10.21969 -91.1597 -3.90545 11.10721 49.57517 -0.55848 -7.00724 -18.9066 -8.53813 -5.53455 -3.69304 55.43116 1.88776 4.30806 -24.23909 -8.96186 5.35426 3.62716
-0.00243 -0.00038 -0.00079 20.08752 -36.37521 -2.75934 57.25761 -0.2875 0.53668 -8.46908 -1.20499 -0.14697 163.75801 -76.18146 -51.37576 15.41925 77.41967 -2.15286 -9.45933 163.20005 71.84896 70.4903 10.20108 -91.16621 -3.83262 11.05754 49.55265 -0.60525 -7.29454 -18.90904 -8.52343 -5.52698 -3.68601 55.40495 2.00251 4.84598 -24.24058 -8.90064 5.31707 3.60119
-0.00256 -0.0004 -0.00082 20.08375 -36.34567 -2.76351 57.29712 -0.30114 0.54237 -8.65831 -1.20311 -0.14715 163.98181 -76.16109 -51.10407 15.41485 77.45514 -2.08846 -9.42696 163.2757 71.88052 70.44973 10.18917 -91.17701 -3.77645 11.01678 49.52584 -0.65305 -7.58185 -18.91108 -8.5015 -5.51472 -3.67601 55.3779 2.07406 5.18621 -24.24207 -8.86271 5.2938 3.58532
-0.00269 -0.00042 -0.00086 20.08149 -36.30667 -2.76386 57.33021 -0.31764 0.54619 -8.86199 -1.2026 -0.14726 164.01009 -76.18223 -51.05019 15.42926 77.4595 -2.08292 -9.42043 163.2339 71.93634 70.45802 10.1979 -91.16371 -3.76188 11.00783 49.48791 -0.70438 -7.87099 -18.91168 -8.4581 -5.48871 -3.65721 55.35023 2.02057 4.95546 -24.24346 -8.89191 5.31076 3.59885
-0.00283 -0.00043 -0.00089 20.07954 -36.26401 -2.76294 57.36025 -0.33493 0.54953 -9.07043 -1.20227 -0.14734 163.96229 -76.22214 -51.07826 15.4507 77.459 -2.09855 -9.42164 163.14651 72.00437 70.48611 10.21378 -91.15981 -3.76551 11.00769 49.44614 -0.75615 -8.15663 -18.91192 -8.4078 -5.4582 -3.63562 55.322 1.92489 4.53162 -24.24484 -8.94378 5.3413 3.62222
-0.00298 -0.00045 -0.00092 20.07709 -36.22313 -2.76278 57.39089 -0.35155 0.55316 -9.27569 -1.20156 -0.14744 163.94657 -76.25634 -51.06995 15.46932 77.46829 -2.10519 -9.41843 163.08034 72.06975 70.50195 10.22682 -91.17709 -3.76592 11.00179 49.40682 -0.8063 -8.43647 -18.91249 -8.36182 -5.43039 -3.61587 55.29408 1.85279 4.21517 -24.24623 -8.98289 5.36426 3.64
-0.0031 -0.00046 -0.00096 20.07623 -36.18152 -2.7619 57.42495 -0.36954 0.55651 -9.48565 -1.20206 -0.14749 163.94302 -76.27744 -51.05649 15.48682 77.44577 -2.10924 -9.41943 163.01214 72.12104 70.5338 10.23805 -91.09342 -3.74585 11.00351 49.3642 -0.86261 -8.74901 -18.91233 -8.3108 -5.39977 -3.59366 55.26559 1.76208 3.81552 -24.24759 -9.03243 5.39318 3.6625
-0.00327 -0.00049 -0.00098 20.07206 -36.14066 -2.76214 57.45102 -0.38481 0.56038 -9.68667 -1.20011 -0.14765 163.89325 -76.33202 -51.07549 15.50779 77.48823 -2.12328 -9.41267 162.93592 72.20687 70.5366 10.25452 -91.21409 -3.77134 10.9907 49.32773 -0.90618 -8.99191 -18.91363 -8.26865 -5.37397 -3.57593 55.23833 1.70003 3.5432 -24.24902 -9.06567 5.41294 3.67753
-0.00354 -0.00053 -0.00096 20.05925 -36.10251 -2.76654 57.45695 -0.39265 0.56525 -9.86308 -1.19115 -0.14805 163.75598 -76.45955 -51.14843 15.54073 77.71162 -2.16412 -9.3904 162.86231 72.36706 70.45141 10.28657 -91.96665 -3.93154 10.94351 49.30833 -0.91399 -9.04495 -18.91891 -8.25268 -5.36247 -3.57134 55.21415 1.72855 3.67238 -24.25057 -9.04773 5.40381 3.66913
-0.00386 -0.00059 -0.00092 20.04297 -36.06529 -2.77194 57.45462 -0.39762 0.57083 -10.02988 -1.17975 -0.14861 163.56742 -76.62354 -51.25755 15.57593 78.00021 -2.21316 -9.35836 162.77747 72.56599 70.33853 10.32291 -92.91149 -4.13437 10.87964 49.29547 -0.90905 -9.02766 -18.92574 -8.24587 -5.35599 -3.57134 55.19138 1.78713 3.93586 -24.25221 -9.01274 5.38506 3.65293
-0.00416 -0.00065 -0.00089 20.02797 -36.02784 -2.77645 57.45549 -0.40375 0.57637 -10.20044 -1.16962 -0.14906 163.39281 -76.77965 -51.35592 15.60771 78.25912 -2.25611 -9.32603 162.69211 72.75771 70.23717 10.35581 -93.72239 -4.30916 10.81879 49.28017 -0.91015 -9.04122 -18.93194 -8.2349 -5.34729 -3.56922 55.1683 1.83129 4.13632 -24.25382 -8.98596 5.37086 3.64053
-0.00445 -0.00069 -0.00086 20.01437 -35.98948 -2.78291 57.45911 -0.41066 0.5804 -10.37448 -1.15884 -0.14948 163.26944 -76.89687 -51.41888 15.65081 78.51932 -2.31131 -9.31501 162.63876 72.90174 70.13243 10.39633 -94.73004 -4.52175 10.779 49.2624 -0.91005 -9.05893 -18.93772 -8.22375 -5.33823 -3.56719 55.14374 1.87741 4.33883 -24.25531 -8.95797 5.35633 3.62741
